<?xml version="1.0" encoding="utf-8"?>
<svg xmlns="http://www.w3.org/2000/svg" viewBox="-338.021 -283.36 975.717 534.523">
  <g transform="matrix(0.1, 0, 0, -0.1, -359.227966, 290.006287)" fill="#000000" stroke="none">
    <path d="M469 5559 c-48 -24 -59 -35 -78 -78 -21 -50 -21 -52 -21 -920 l0 -871 26 -52 c22 -45 33 -56 77 -76 110 -47 225 -14 272 78 l25 49 0 870 0 871 -26 53 c-22 44 -36 59 -72 77 -71 34 -136 34 -203 -1z" style="fill-rule: nonzero; fill: rgb(255, 255, 255);"/>
    <path d="M3352 5563 c-68 -35 -874 -840 -907 -906 -53 -103 -16 -218 84 -269 69 -35 118 -36 185 -2 78 38 866 826 907 906 37 72 37 121 2 192 -21 44 -35 58 -72 76 -70 32 -141 33 -199 3z" style="fill-rule: nonzero; fill: rgb(255, 255, 255);"/>
    <path d="M4608 5576 c-90 -32 -128 -88 -128 -188 0 -87 29 -138 97 -172 l53 -26 335 0 335 0 0 -267 0 -268 -391 -390 c-242 -242 -398 -405 -410 -429 -27 -57 -26 -149 4 -201 50 -88 170 -119 268 -69 75 37 865 827 903 901 l26 52 0 455 0 456 -27 54 c-23 49 -33 58 -84 80 l-57 26 -443 0 c-344 -1 -452 -4 -481 -14z" style="fill-rule: nonzero; fill: rgb(255, 255, 255);"/>
    <path d="M6633 5560 c-49 -23 -62 -35 -80 -74 -50 -103 -15 -224 77 -271 64 -32 133 -33 195 -3 36 18 52 34 75 77 38 70 39 122 3 195 -21 44 -35 58 -72 76 -71 33 -130 33 -198 0z" style="fill-rule: nonzero; fill: rgb(255, 255, 255);"/>
    <path d="M9513 5564 c-68 -36 -875 -840 -909 -906 l-24 -47 0 -461 0 -461 25 -49 c68 -134 282 -134 350 0 l25 49 0 388 0 388 386 385 c269 269 393 399 410 432 32 62 33 149 2 212 -25 51 -80 81 -165 90 -43 4 -61 0 -100 -20z" style="fill-rule: nonzero; fill: rgb(255, 255, 255);"/>
    <path d="M6622 3907 c-123 -62 -121 -285 4 -345 44 -22 52 -22 514 -22 466 0 470 0 516 22 126 62 126 284 0 346 -46 22 -49 22 -519 21 -462 0 -473 -1 -515 -22z" style="fill-rule: nonzero; fill: rgb(255, 255, 255);"/>
    <path d="M492 2545 c-45 -22 -55 -32 -77 -79 l-25 -55 0 -871 0 -871 25 -49 c68 -134 282 -134 350 0 l25 49 0 873 0 873 -25 52 c-21 46 -31 56 -79 78 -69 32 -125 32 -194 0z" style="fill-rule: nonzero; fill: rgb(255, 255, 255);"/>
    <path d="M3375 2549 c-24 -13 -210 -191 -463 -442 -447 -446 -472 -477 -472 -561 1 -24 12 -64 28 -96 23 -47 35 -59 82 -82 70 -34 117 -35 183 -2 79 39 866 825 908 906 37 72 37 121 3 191 -23 46 -35 58 -81 81 -66 32 -131 34 -188 5z" style="fill-rule: nonzero; fill: rgb(255, 255, 255);"/>
    <path d="M4598 2544 c-132 -68 -130 -282 2 -349 l49 -25 336 0 335 0 0 -268 0 -267 -386 -385 c-269 -269 -393 -399 -410 -432 -52 -102 -18 -226 76 -273 63 -32 134 -33 193 -4 61 30 870 838 903 901 l24 47 0 466 0 466 -25 49 c-20 39 -36 55 -75 75 l-49 25 -463 0 -463 -1 -47 -25z" style="fill-rule: nonzero; fill: rgb(255, 255, 255);"/>
    <path d="M6647 2544 c-60 -32 -97 -98 -97 -174 0 -46 29 -108 349 -749 193 -384 347 -702 344 -705 -4 -4 -129 -6 -278 -6 -264 1 -274 0 -319 -22 -129 -62 -127 -278 4 -345 45 -22 46 -22 511 -23 l465 0 50 25 c42 21 54 33 72 75 48 109 70 53 -415 1025 l-438 876 -54 24 c-69 32 -130 32 -194 -1z" style="fill-rule: nonzero; fill: rgb(255, 255, 255);"/>
    <path d="M9535 2549 c-60 -31 -880 -851 -911 -911 l-24 -47 0 -455 0 -455 25 -56 c22 -46 33 -59 75 -80 104 -53 227 -19 275 75 l25 49 0 388 0 388 386 385 c310 309 391 396 415 442 36 71 37 113 3 187 -22 51 -31 61 -80 84 -67 33 -132 35 -189 6z" style="fill-rule: nonzero; fill: rgb(255, 255, 255);"/>
  </g>
</svg>